<?xml version="1.0" encoding="utf-8"?>
<!-- Generator: Adobe Illustrator 23.0.2, SVG Export Plug-In . SVG Version: 6.00 Build 0)  -->
<svg version="1.1" id="Layer_1" xmlns="http://www.w3.org/2000/svg" xmlns:xlink="http://www.w3.org/1999/xlink" x="0px" y="0px"
	 viewBox="0 0 771.3 771.3" style="enable-background:new 0 0 771.3 771.3;" xml:space="preserve">
<style type="text/css">
	.st0{fill:#43527D;}
	.st1{fill:#FFFFFF;}
</style>
<path class="st0" d="M403.7,762.9L15.2,459.4C-2,446-5.1,420.9,8.4,403.7L311.9,15.2C325.3-2,350.4-5.1,367.6,8.4l388.5,303.5
	c17.2,13.4,20.3,38.5,6.8,55.7L459.4,756.1C446,773.3,420.9,776.3,403.7,762.9z"/>
<g>
	<path class="st1" d="M210.4,217.1v61.1h36.5v13.9h-53v-75H210.4z"/>
	<path class="st1" d="M312.2,217.1V231h-39.6V247H309v12.8h-36.3v18.4h40.4v13.9h-56.9v-75H312.2z"/>
	<path class="st1" d="M340.5,292.1l-24.3-75h16.9l16.7,52.7h0.2l16.9-52.7h17l-24.9,75H340.5z"/>
	<path class="st1" d="M210.4,315.1v61.1h36.5v13.9h-53v-75H210.4z"/>
	<path class="st1" d="M272.6,315.1v75h-16.5v-75H272.6z"/>
	<path class="st1" d="M303.4,390.1l-24.3-75H296l16.7,52.7h0.2l16.9-52.7h17l-24.9,75H303.4z"/>
	<path class="st1" d="M409.3,315.1V329h-39.6V345h36.3v12.8h-36.3v18.4h40.4v13.9h-56.9v-75H409.3z"/>
	<path class="st1" d="M415.4,329v-13.9h61.4V329h-22.5v61.1h-16.5V329H415.4z"/>
	<path class="st1" d="M210.4,413.1v75h-16.5v-75H210.4z"/>
	<path class="st1" d="M291.4,413.1l28,75h-17.1l-5.7-16.7h-28l-5.9,16.7h-16.6l28.4-75H291.4z M292.4,459.1l-9.4-27.5h-0.2
		l-9.8,27.5H292.4z"/>
	<path class="st1" d="M381.1,482.4c-5.7,4.9-13.5,7.4-23.5,7.4c-10.2,0-18-2.4-23.6-7.3c-5.6-4.9-8.3-12.5-8.3-22.7v-46.6h16.5v46.6
		c0,2,0.2,4,0.5,6c0.3,2,1.1,3.7,2.2,5.2c1.1,1.5,2.7,2.7,4.7,3.7c2,0.9,4.7,1.4,8,1.4c5.9,0,9.9-1.3,12.2-3.9
		c2.2-2.6,3.4-6.7,3.4-12.3v-46.6h16.5v46.6C389.6,469.9,386.8,477.4,381.1,482.4z"/>
	<path class="st1" d="M420.3,413.1v61.1h36.5v13.9h-53v-75H420.3z"/>
	<path class="st1" d="M521.2,482.4c-5.7,4.9-13.5,7.4-23.5,7.4c-10.2,0-18-2.4-23.6-7.3c-5.6-4.9-8.3-12.5-8.3-22.7v-46.6h16.5v46.6
		c0,2,0.2,4,0.5,6c0.3,2,1.1,3.7,2.2,5.2c1.1,1.5,2.7,2.7,4.7,3.7c2,0.9,4.7,1.4,8,1.4c5.9,0,9.9-1.3,12.2-3.9
		c2.2-2.6,3.4-6.7,3.4-12.3v-46.6h16.5v46.6C529.7,469.9,526.8,477.4,521.2,482.4z"/>
	<path class="st1" d="M567.1,413.1l17.5,51.6h0.2l16.6-51.6h23.2v75h-15.4v-53.1h-0.2l-18.4,53.1h-12.7l-18.4-52.6h-0.2v52.6h-15.4
		v-75H567.1z"/>
</g>
<g>
	<path class="st1" d="M197,518.5v35.7h-3.2v-35.7H197z"/>
	<path class="st1" d="M203.6,532.4c0.5-1.1,1.3-2,2.2-2.7c0.9-0.7,2-1.2,3.2-1.6c1.2-0.3,2.6-0.5,4.1-0.5c1.1,0,2.3,0.1,3.4,0.3
		c1.1,0.2,2.2,0.6,3.1,1.2c0.9,0.6,1.6,1.4,2.2,2.5c0.6,1.1,0.9,2.5,0.9,4.2v13.7c0,1.3,0.6,1.9,1.9,1.9c0.4,0,0.7-0.1,1-0.2v2.6
		c-0.4,0.1-0.7,0.1-1,0.2c-0.3,0-0.6,0.1-1.1,0.1c-0.8,0-1.4-0.1-1.9-0.3c-0.5-0.2-0.9-0.5-1.1-0.9c-0.3-0.4-0.4-0.9-0.5-1.4
		c-0.1-0.5-0.1-1.2-0.1-1.8h-0.1c-0.6,0.8-1.1,1.6-1.7,2.2c-0.6,0.7-1.2,1.2-1.9,1.6c-0.7,0.4-1.5,0.8-2.5,1c-0.9,0.2-2,0.3-3.3,0.3
		c-1.2,0-2.3-0.1-3.4-0.4s-2-0.7-2.8-1.4c-0.8-0.6-1.4-1.4-1.9-2.3c-0.4-0.9-0.7-2.1-0.7-3.4c0-1.8,0.4-3.2,1.2-4.2
		c0.8-1,1.9-1.8,3.2-2.3c1.3-0.5,2.8-0.9,4.4-1.1c1.7-0.2,3.3-0.4,5-0.6c0.7-0.1,1.2-0.1,1.8-0.2s0.9-0.3,1.2-0.5
		c0.3-0.2,0.6-0.6,0.8-1c0.2-0.4,0.3-1,0.3-1.7c0-1.1-0.2-1.9-0.5-2.6c-0.4-0.7-0.8-1.2-1.5-1.6c-0.6-0.4-1.3-0.7-2.1-0.8
		c-0.8-0.2-1.7-0.2-2.6-0.2c-2,0-3.6,0.5-4.9,1.4c-1.3,1-1.9,2.5-2,4.6h-3.1C202.8,534.8,203.1,533.5,203.6,532.4z M219.4,540.1
		c-0.2,0.4-0.6,0.6-1.1,0.8c-0.6,0.2-1.1,0.3-1.5,0.3c-1.3,0.2-2.7,0.4-4.1,0.6c-1.4,0.2-2.7,0.5-3.9,0.8c-1.2,0.4-2.1,0.9-2.9,1.6
		c-0.8,0.7-1.1,1.7-1.1,2.9c0,0.8,0.2,1.5,0.5,2.1c0.3,0.6,0.7,1.1,1.3,1.6c0.5,0.4,1.1,0.8,1.9,1c0.7,0.2,1.4,0.3,2.1,0.3
		c1.2,0,2.4-0.2,3.5-0.6c1.1-0.4,2.1-0.9,2.9-1.6c0.8-0.7,1.5-1.5,1.9-2.5c0.5-1,0.7-2.1,0.7-3.4v-4.1H219.4z"/>
	<path class="st1" d="M231.9,528.4v4.5h0.1c0.6-1.6,1.7-2.8,3.2-3.8c1.5-1,3.2-1.4,5.1-1.4c1.8,0,3.3,0.2,4.5,0.7
		c1.2,0.5,2.2,1.1,2.9,2c0.7,0.8,1.2,1.9,1.6,3.1c0.3,1.2,0.4,2.6,0.4,4.1v16.6h-3.1v-16.1c0-1.1-0.1-2.1-0.3-3.1
		c-0.2-0.9-0.6-1.8-1.1-2.5c-0.5-0.7-1.2-1.2-2-1.7s-1.9-0.6-3.2-0.6c-1.3,0-2.4,0.2-3.4,0.7c-1,0.5-1.8,1.1-2.5,1.9
		c-0.7,0.8-1.2,1.7-1.6,2.8c-0.4,1.1-0.6,2.3-0.6,3.5v15.1h-3.1v-25.8H231.9z"/>
	<path class="st1" d="M276.8,557.3c-0.4,1.5-1.1,2.8-2,3.9c-0.9,1.1-2.1,1.9-3.5,2.5c-1.4,0.6-3.2,0.9-5.3,0.9
		c-1.3,0-2.6-0.2-3.8-0.5c-1.2-0.3-2.3-0.8-3.3-1.4c-1-0.6-1.8-1.4-2.5-2.4c-0.6-1-1-2.2-1.1-3.5h3.1c0.2,1,0.5,1.8,1,2.4
		c0.5,0.6,1.1,1.2,1.8,1.6c0.7,0.4,1.4,0.7,2.3,0.9c0.8,0.2,1.7,0.3,2.6,0.3c2.9,0,5-0.8,6.4-2.5c1.3-1.7,1.9-4.1,1.9-7.2v-3.5h-0.1
		c-0.7,1.6-1.8,2.9-3.2,3.9c-1.4,1-3.1,1.4-5,1.4c-2.1,0-3.8-0.3-5.3-1c-1.5-0.7-2.7-1.6-3.6-2.8c-0.9-1.2-1.6-2.6-2.1-4.2
		c-0.4-1.6-0.6-3.3-0.6-5.2c0-1.8,0.3-3.4,0.8-5c0.5-1.6,1.3-3,2.3-4.1c1-1.2,2.2-2.1,3.6-2.8s3.1-1,5-1c1,0,1.9,0.1,2.7,0.4
		c0.8,0.3,1.6,0.6,2.3,1.1c0.7,0.5,1.3,1,1.9,1.7c0.6,0.6,1,1.3,1.3,2h0.1v-4.5h3.1v23.7C277.4,554,277.2,555.7,276.8,557.3z
		 M269.5,550.4c1-0.6,1.9-1.3,2.6-2.3c0.7-1,1.2-2,1.6-3.3c0.4-1.2,0.5-2.5,0.5-3.8c0-1.3-0.1-2.5-0.4-3.8c-0.3-1.3-0.8-2.4-1.5-3.5
		c-0.7-1-1.5-1.9-2.6-2.5c-1-0.6-2.3-0.9-3.8-0.9s-2.8,0.3-3.9,0.9c-1.1,0.6-2,1.4-2.6,2.4c-0.7,1-1.2,2.1-1.5,3.4
		c-0.3,1.3-0.5,2.6-0.5,3.9c0,1.3,0.2,2.6,0.5,3.8c0.3,1.2,0.9,2.3,1.5,3.3c0.7,0.9,1.6,1.7,2.6,2.3c1.1,0.6,2.3,0.9,3.8,0.9
		C267.3,551.3,268.5,551,269.5,550.4z"/>
	<path class="st1" d="M293.5,528.4v2.7h-5.2v17.4c0,1,0.1,1.8,0.4,2.4c0.3,0.6,1,0.9,2.1,1c0.9,0,1.8,0,2.7-0.1v2.6
		c-0.5,0-0.9,0-1.4,0c-0.5,0-0.9,0.1-1.4,0.1c-2.1,0-3.6-0.4-4.4-1.2c-0.8-0.8-1.2-2.3-1.2-4.5v-17.7h-4.5v-2.7h4.5v-7.8h3.1v7.8
		H293.5z"/>
	<path class="st1" d="M316.6,531.1v23.2h-3.1v-23.2h-4.4v-2.7h4.4v-2.3c0-1.1,0.1-2.1,0.2-3.1c0.2-0.9,0.5-1.7,0.9-2.4
		c0.5-0.7,1.1-1.2,1.9-1.5c0.8-0.4,1.9-0.6,3.1-0.6c0.5,0,0.9,0,1.3,0.1s0.9,0.1,1.4,0.2v2.7c-0.4-0.1-0.8-0.1-1.2-0.2
		c-0.4,0-0.7-0.1-1.1-0.1c-0.9,0-1.5,0.1-2,0.4c-0.5,0.3-0.8,0.6-1,1.1c-0.2,0.5-0.3,1-0.4,1.6c0,0.6,0,1.2,0,1.9v2.2h5.1v2.7H316.6
		z"/>
	<path class="st1" d="M327.5,528.4v6.1h0.1c0.8-2.1,2-3.7,3.7-4.9c1.7-1.1,3.7-1.6,6-1.5v3.2c-1.4-0.1-2.7,0.1-3.9,0.6
		c-1.2,0.5-2.2,1.1-3,1.9c-0.9,0.8-1.5,1.8-2,3c-0.5,1.2-0.7,2.4-0.7,3.8v13.8h-3.1v-25.8H327.5z"/>
	<path class="st1" d="M340.9,532.4c0.5-1.1,1.3-2,2.2-2.7c0.9-0.7,2-1.2,3.2-1.6c1.2-0.3,2.6-0.5,4.1-0.5c1.1,0,2.3,0.1,3.4,0.3
		c1.1,0.2,2.2,0.6,3.1,1.2c0.9,0.6,1.6,1.4,2.2,2.5c0.6,1.1,0.9,2.5,0.9,4.2v13.7c0,1.3,0.6,1.9,1.9,1.9c0.4,0,0.7-0.1,1-0.2v2.6
		c-0.4,0.1-0.7,0.1-1,0.2c-0.3,0-0.6,0.1-1.1,0.1c-0.8,0-1.4-0.1-1.9-0.3c-0.5-0.2-0.9-0.5-1.1-0.9c-0.3-0.4-0.4-0.9-0.5-1.4
		c-0.1-0.5-0.1-1.2-0.1-1.8h-0.1c-0.6,0.8-1.1,1.6-1.7,2.2c-0.6,0.7-1.2,1.2-1.9,1.6c-0.7,0.4-1.5,0.8-2.5,1c-0.9,0.2-2,0.3-3.3,0.3
		c-1.2,0-2.3-0.1-3.4-0.4s-2-0.7-2.8-1.4c-0.8-0.6-1.4-1.4-1.9-2.3c-0.4-0.9-0.7-2.1-0.7-3.4c0-1.8,0.4-3.2,1.2-4.2
		c0.8-1,1.9-1.8,3.2-2.3c1.3-0.5,2.8-0.9,4.4-1.1c1.7-0.2,3.3-0.4,5-0.6c0.7-0.1,1.2-0.1,1.8-0.2s0.9-0.3,1.2-0.5
		c0.3-0.2,0.6-0.6,0.8-1c0.2-0.4,0.3-1,0.3-1.7c0-1.1-0.2-1.9-0.5-2.6c-0.4-0.7-0.8-1.2-1.5-1.6c-0.6-0.4-1.3-0.7-2.1-0.8
		c-0.8-0.2-1.7-0.2-2.6-0.2c-2,0-3.6,0.5-4.9,1.4c-1.3,1-1.9,2.5-2,4.6H340C340.1,534.8,340.4,533.5,340.9,532.4z M356.7,540.1
		c-0.2,0.4-0.6,0.6-1.1,0.8c-0.6,0.2-1.1,0.3-1.5,0.3c-1.3,0.2-2.7,0.4-4.1,0.6c-1.4,0.2-2.7,0.5-3.9,0.8c-1.2,0.4-2.1,0.9-2.9,1.6
		c-0.8,0.7-1.1,1.7-1.1,2.9c0,0.8,0.2,1.5,0.5,2.1c0.3,0.6,0.7,1.1,1.3,1.6c0.5,0.4,1.1,0.8,1.9,1c0.7,0.2,1.4,0.3,2.1,0.3
		c1.2,0,2.4-0.2,3.5-0.6c1.1-0.4,2.1-0.9,2.9-1.6c0.8-0.7,1.5-1.5,1.9-2.5c0.5-1,0.7-2.1,0.7-3.4v-4.1H356.7z"/>
	<path class="st1" d="M383.1,518.5v35.7H380v-35.7H383.1z"/>
	<path class="st1" d="M389.7,532.4c0.5-1.1,1.3-2,2.2-2.7c0.9-0.7,2-1.2,3.2-1.6c1.2-0.3,2.6-0.5,4.1-0.5c1.1,0,2.3,0.1,3.4,0.3
		c1.1,0.2,2.2,0.6,3,1.2c0.9,0.6,1.6,1.4,2.2,2.5c0.6,1.1,0.9,2.5,0.9,4.2v13.7c0,1.3,0.6,1.9,1.8,1.9c0.4,0,0.7-0.1,1-0.2v2.6
		c-0.4,0.1-0.7,0.1-1,0.2c-0.3,0-0.6,0.1-1.1,0.1c-0.8,0-1.4-0.1-1.9-0.3c-0.5-0.2-0.9-0.5-1.1-0.9c-0.3-0.4-0.4-0.9-0.5-1.4
		c-0.1-0.5-0.1-1.2-0.1-1.8h-0.1c-0.6,0.8-1.1,1.6-1.7,2.2s-1.2,1.2-2,1.6s-1.5,0.8-2.4,1c-0.9,0.2-2,0.3-3.3,0.3
		c-1.2,0-2.3-0.1-3.4-0.4s-2-0.7-2.8-1.4c-0.8-0.6-1.4-1.4-1.9-2.3c-0.4-0.9-0.7-2.1-0.7-3.4c0-1.8,0.4-3.2,1.2-4.2
		c0.8-1,1.9-1.8,3.2-2.3c1.3-0.5,2.8-0.9,4.5-1.1c1.7-0.2,3.3-0.4,5-0.6c0.7-0.1,1.2-0.1,1.8-0.2s0.9-0.3,1.2-0.5
		c0.3-0.2,0.6-0.6,0.8-1s0.3-1,0.3-1.7c0-1.1-0.2-1.9-0.5-2.6c-0.3-0.7-0.8-1.2-1.4-1.6c-0.6-0.4-1.3-0.7-2.2-0.8
		c-0.8-0.2-1.7-0.2-2.6-0.2c-2,0-3.6,0.5-4.9,1.4s-1.9,2.5-2,4.6h-3.1C388.9,534.8,389.2,533.5,389.7,532.4z M405.5,540.1
		c-0.2,0.4-0.6,0.6-1.2,0.8c-0.6,0.2-1.1,0.3-1.5,0.3c-1.3,0.2-2.7,0.4-4.1,0.6c-1.4,0.2-2.7,0.5-3.9,0.8c-1.2,0.4-2.1,0.9-2.9,1.6
		c-0.8,0.7-1.1,1.7-1.1,2.9c0,0.8,0.2,1.5,0.5,2.1s0.7,1.1,1.3,1.6c0.5,0.4,1.2,0.8,1.8,1c0.7,0.2,1.4,0.3,2.2,0.3
		c1.2,0,2.3-0.2,3.5-0.6c1.1-0.4,2.1-0.9,2.9-1.6c0.8-0.7,1.5-1.5,2-2.5c0.5-1,0.7-2.1,0.7-3.4L405.5,540.1L405.5,540.1z"/>
	<path class="st1" d="M418,528.4v4.5h0.1c0.6-1.6,1.7-2.8,3.2-3.8c1.5-1,3.2-1.4,5-1.4c1.8,0,3.3,0.2,4.5,0.7c1.2,0.5,2.2,1.1,2.9,2
		c0.7,0.8,1.2,1.9,1.5,3.1c0.3,1.2,0.5,2.6,0.5,4.1v16.6h-3.2v-16.1c0-1.1-0.1-2.1-0.3-3.1c-0.2-0.9-0.5-1.8-1-2.5
		c-0.5-0.7-1.2-1.2-2-1.7s-1.9-0.6-3.2-0.6c-1.3,0-2.4,0.2-3.4,0.7c-1,0.5-1.8,1.1-2.5,1.9c-0.7,0.8-1.2,1.7-1.6,2.8
		c-0.4,1.1-0.6,2.3-0.6,3.5v15.1h-3.1v-25.8H418z"/>
	<path class="st1" d="M462.9,557.3c-0.4,1.5-1.1,2.8-2,3.9c-0.9,1.1-2.1,1.9-3.5,2.5c-1.5,0.6-3.2,0.9-5.3,0.9
		c-1.3,0-2.6-0.2-3.8-0.5c-1.2-0.3-2.3-0.8-3.3-1.4c-1-0.6-1.8-1.4-2.4-2.4c-0.7-1-1-2.2-1.1-3.5h3.1c0.2,1,0.5,1.8,1,2.4
		c0.5,0.6,1.1,1.2,1.8,1.6c0.7,0.4,1.4,0.7,2.3,0.9s1.7,0.3,2.5,0.3c2.9,0,5.1-0.8,6.4-2.5c1.3-1.7,2-4.1,2-7.2v-3.5h-0.1
		c-0.7,1.6-1.8,2.9-3.2,3.9c-1.4,1-3.1,1.4-5,1.4c-2.1,0-3.8-0.3-5.3-1c-1.5-0.7-2.7-1.6-3.6-2.8c-1-1.2-1.6-2.6-2.1-4.2
		s-0.6-3.3-0.6-5.2c0-1.8,0.3-3.4,0.8-5c0.5-1.6,1.3-3,2.2-4.1c1-1.2,2.2-2.1,3.7-2.8s3.1-1,5-1c1,0,1.9,0.1,2.7,0.4
		c0.8,0.3,1.6,0.6,2.3,1.1c0.7,0.5,1.3,1,1.9,1.7c0.5,0.6,1,1.3,1.3,2h0.1v-4.5h3.1v23.7C463.5,554,463.3,555.7,462.9,557.3z
		 M455.6,550.4c1-0.6,1.9-1.3,2.6-2.3c0.7-1,1.2-2,1.6-3.3c0.3-1.2,0.5-2.5,0.5-3.8c0-1.3-0.2-2.5-0.5-3.8c-0.3-1.3-0.8-2.4-1.5-3.5
		c-0.7-1-1.5-1.9-2.6-2.5c-1-0.6-2.3-0.9-3.8-0.9s-2.8,0.3-3.8,0.9c-1.1,0.6-2,1.4-2.7,2.4c-0.7,1-1.2,2.1-1.5,3.4
		c-0.3,1.3-0.5,2.6-0.5,3.9c0,1.3,0.2,2.6,0.5,3.8c0.3,1.2,0.9,2.3,1.6,3.3c0.7,0.9,1.6,1.7,2.6,2.3c1.1,0.6,2.3,0.9,3.8,0.9
		C453.4,551.3,454.6,551,455.6,550.4z"/>
	<path class="st1" d="M479.6,528.4v2.7h-5.2v17.4c0,1,0.1,1.8,0.4,2.4c0.3,0.6,1,0.9,2.1,1c0.9,0,1.8,0,2.7-0.1v2.6
		c-0.5,0-0.9,0-1.4,0s-0.9,0.1-1.4,0.1c-2.1,0-3.6-0.4-4.4-1.2c-0.8-0.8-1.2-2.3-1.2-4.5v-17.7h-4.5v-2.7h4.5v-7.8h3.2v7.8H479.6z"
		/>
	<path class="st1" d="M515.9,554.2v-4.7h-0.1c-0.8,1.7-2,3.1-3.6,4c-1.6,0.9-3.3,1.4-5.3,1.4c-1.6,0-3-0.2-4.2-0.7
		c-1.2-0.5-2.1-1.1-2.8-1.9c-0.7-0.8-1.2-1.8-1.6-3.1c-0.3-1.2-0.5-2.6-0.5-4.1v-16.8h3.1v16.8c0.1,2.3,0.6,4.1,1.6,5.3
		c1,1.2,2.8,1.8,5.3,1.8c1.4,0,2.5-0.3,3.5-0.9c1-0.6,1.8-1.4,2.4-2.3c0.6-1,1.1-2.1,1.4-3.3s0.5-2.5,0.5-3.8v-13.6h3.2v25.8H515.9z
		"/>
	<path class="st1" d="M544.4,554.2v-4.9h-0.1c-0.3,0.8-0.8,1.6-1.5,2.3c-0.6,0.7-1.4,1.3-2.2,1.8c-0.8,0.5-1.7,0.9-2.7,1.1
		c-1,0.3-1.9,0.4-2.8,0.4c-2,0-3.7-0.4-5.1-1.1c-1.5-0.7-2.7-1.7-3.6-3s-1.7-2.7-2.2-4.3s-0.7-3.4-0.7-5.2c0-1.8,0.2-3.6,0.7-5.2
		c0.5-1.7,1.2-3.1,2.2-4.4s2.2-2.2,3.6-3c1.5-0.7,3.2-1.1,5.1-1.1c1,0,1.9,0.1,2.8,0.3c0.9,0.2,1.8,0.6,2.6,1.1
		c0.8,0.5,1.5,1.1,2.1,1.8c0.6,0.7,1.1,1.5,1.4,2.5h0.1v-14.8h3.2v35.7H544.4z M527.2,545.3c0.3,1.3,0.8,2.5,1.5,3.5
		c0.7,1,1.6,1.9,2.6,2.5c1.1,0.6,2.3,1,3.8,1c1.7,0,3.1-0.3,4.2-1c1.2-0.7,2.1-1.5,2.8-2.5c0.7-1,1.2-2.2,1.5-3.5
		c0.3-1.3,0.5-2.6,0.5-4c0-1.3-0.2-2.7-0.5-4c-0.3-1.3-0.8-2.5-1.5-3.5c-0.7-1-1.7-1.9-2.8-2.5c-1.1-0.7-2.6-1-4.2-1
		c-1.5,0-2.8,0.3-3.8,1c-1.1,0.7-1.9,1.5-2.6,2.5c-0.7,1-1.2,2.2-1.5,3.5c-0.3,1.3-0.5,2.6-0.5,4C526.7,542.7,526.8,544,527.2,545.3
		z"/>
	<path class="st1" d="M555.6,545.7c0.3,1.2,0.8,2.3,1.5,3.3c0.7,1,1.6,1.8,2.7,2.4c1.1,0.6,2.3,1,3.8,1c2.3,0,4.1-0.6,5.4-1.8
		c1.3-1.2,2.2-2.8,2.7-4.8h3.1c-0.7,2.9-1.9,5.2-3.7,6.8c-1.8,1.6-4.3,2.4-7.6,2.4c-2,0-3.8-0.4-5.3-1.1c-1.5-0.7-2.7-1.7-3.6-3
		c-0.9-1.2-1.6-2.7-2.1-4.3s-0.7-3.4-0.7-5.2c0-1.7,0.2-3.4,0.7-5s1.1-3.1,2.1-4.4c0.9-1.3,2.1-2.3,3.6-3.1c1.5-0.8,3.2-1.2,5.3-1.2
		c2.1,0,3.8,0.4,5.3,1.2c1.5,0.8,2.7,1.9,3.6,3.3s1.6,2.9,2,4.7c0.4,1.8,0.6,3.5,0.5,5.3h-19.9C555.1,543.3,555.2,544.5,555.6,545.7
		z M571.2,536.1c-0.4-1.1-0.9-2.1-1.6-2.9c-0.7-0.8-1.5-1.5-2.5-2c-1-0.5-2.1-0.8-3.4-0.8c-1.3,0-2.4,0.3-3.4,0.8
		c-1,0.5-1.9,1.2-2.6,2c-0.7,0.9-1.3,1.8-1.7,3s-0.7,2.3-0.8,3.4h16.7C571.7,538.3,571.5,537.2,571.2,536.1z"/>
</g>
</svg>
