<?xml version="1.0" encoding="utf-8"?>
<!-- Generator: Adobe Illustrator 23.0.2, SVG Export Plug-In . SVG Version: 6.00 Build 0)  -->
<svg version="1.1" id="Layer_1" xmlns="http://www.w3.org/2000/svg" xmlns:xlink="http://www.w3.org/1999/xlink" x="0px" y="0px"
	 viewBox="0 0 771.3 771.3" style="enable-background:new 0 0 771.3 771.3;" xml:space="preserve">
<style type="text/css">
	.st0{fill:#43527D;}
	.st1{fill:#FFFFFF;}
</style>
<path class="st0" d="M403.7,762.9L15.2,459.4C-2,446-5.1,420.9,8.4,403.7L311.9,15.2C325.3-2,350.4-5.1,367.6,8.4l388.5,303.5
	c17.2,13.4,20.3,38.5,6.8,55.7L459.4,756.1C446,773.3,420.9,776.3,403.7,762.9z"/>
<g>
	<path class="st1" d="M189.4,250.1v61.1h36.5v13.9h-53v-75H189.4z"/>
	<path class="st1" d="M291.2,250.1V264h-39.6V280H288v12.8h-36.3v18.4h40.4v13.9h-56.9v-75H291.2z"/>
	<path class="st1" d="M319.5,325.1l-24.3-75h16.9l16.7,52.7h0.2l16.9-52.7h17l-24.9,75H319.5z"/>
	<path class="st1" d="M189.4,348.1v61.1h36.5v13.9h-53v-75H189.4z"/>
	<path class="st1" d="M251.6,348.1v75h-16.5v-75H251.6z"/>
	<path class="st1" d="M282.4,423.1l-24.3-75H275l16.7,52.7h0.2l16.9-52.7h17l-24.9,75H282.4z"/>
	<path class="st1" d="M388.3,348.1V362h-39.6V378h36.3v12.8h-36.3v18.4h40.4v13.9h-56.9v-75H388.3z"/>
	<path class="st1" d="M394.4,362v-13.9h61.4V362h-22.5v61.1h-16.5V362H394.4z"/>
	<path class="st1" d="M189.4,446.1v75h-16.5v-75H189.4z"/>
	<path class="st1" d="M270.4,446.1l28,75h-17.1l-5.7-16.7h-28l-5.9,16.7h-16.6l28.4-75H270.4z M271.4,492.1l-9.4-27.5h-0.2
		l-9.8,27.5H271.4z"/>
	<path class="st1" d="M360.1,515.4c-5.7,4.9-13.5,7.4-23.5,7.4c-10.2,0-18-2.4-23.6-7.3c-5.6-4.9-8.3-12.5-8.3-22.7v-46.6h16.5v46.6
		c0,2,0.2,4,0.5,6c0.3,2,1.1,3.7,2.2,5.2c1.1,1.5,2.7,2.7,4.7,3.7c2,0.9,4.7,1.4,8,1.4c5.9,0,9.9-1.3,12.2-3.9
		c2.2-2.6,3.4-6.7,3.4-12.3v-46.6h16.5v46.6C368.6,502.9,365.8,510.4,360.1,515.4z"/>
	<path class="st1" d="M399.3,446.1v61.1h36.5v13.9h-53v-75H399.3z"/>
	<path class="st1" d="M500.2,515.4c-5.7,4.9-13.5,7.4-23.5,7.4c-10.2,0-18-2.4-23.6-7.3c-5.6-4.9-8.3-12.5-8.3-22.7v-46.6h16.5v46.6
		c0,2,0.2,4,0.5,6c0.3,2,1.1,3.7,2.2,5.2c1.1,1.5,2.7,2.7,4.7,3.7c2,0.9,4.7,1.4,8,1.4c5.9,0,9.9-1.3,12.2-3.9
		c2.2-2.6,3.4-6.7,3.4-12.3v-46.6h16.5v46.6C508.7,502.9,505.8,510.4,500.2,515.4z"/>
	<path class="st1" d="M546.1,446.1l17.5,51.6h0.2l16.6-51.6h23.2v75h-15.4v-53.1h-0.2l-18.4,53.1h-12.7l-18.4-52.6h-0.2v52.6h-15.4
		v-75H546.1z"/>
</g>
</svg>
